<svg width="16" height="16" viewBox="0 0 16 16" fill="none" xmlns="http://www.w3.org/2000/svg">
<path d="M3.83934 2.64999H5.028V3.83999H3.83934V6.81199C3.83925 6.96809 3.80842 7.12264 3.7486 7.26683C3.68878 7.41101 3.60115 7.542 3.49071 7.65231C3.38027 7.76263 3.24919 7.85011 3.10494 7.90977C2.96069 7.96942 2.8061 8.00008 2.65 7.99999C2.80616 7.99991 2.9608 8.03059 3.10509 8.09028C3.24938 8.14998 3.3805 8.23752 3.49095 8.34791C3.6014 8.4583 3.68901 8.58936 3.74879 8.73362C3.80857 8.87788 3.83934 9.03251 3.83934 9.18866V12.1613H5.028V13.35H3.83934C3.20334 13.19 2.65 12.8147 2.65 12.1613V9.78333C2.65 9.46807 2.52477 9.16573 2.30185 8.94281C2.07893 8.71989 1.77659 8.59466 1.46134 8.59466H0.866669V7.40599H1.46134C1.61749 7.40599 1.77211 7.37523 1.91637 7.31545C2.06063 7.25567 2.1917 7.16805 2.30209 7.05761C2.41247 6.94716 2.50001 6.81604 2.55971 6.67175C2.61941 6.52746 2.65009 6.37281 2.65 6.21666V3.83999C2.64983 3.68367 2.68049 3.52885 2.74023 3.38439C2.79997 3.23994 2.88762 3.10868 2.99815 2.99815C3.10869 2.88761 3.23994 2.79996 3.3844 2.74022C3.52886 2.68048 3.68368 2.64982 3.84 2.64999H3.83934ZM12.162 2.64999C12.3182 2.64999 12.4728 2.68076 12.617 2.74054C12.7613 2.80032 12.8924 2.88793 13.0028 2.99838C13.1131 3.10883 13.2007 3.23995 13.2604 3.38424C13.3201 3.52853 13.3508 3.68317 13.3507 3.83933V6.21666C13.3506 6.37281 13.3813 6.52746 13.441 6.67175C13.5007 6.81604 13.5882 6.94716 13.6986 7.05761C13.809 7.16805 13.94 7.25567 14.0843 7.31545C14.2286 7.37523 14.3832 7.40599 14.5393 7.40599H15.134V8.59466H14.5393C14.3832 8.59466 14.2287 8.62541 14.0845 8.68514C13.9402 8.74488 13.8092 8.83244 13.6988 8.94281C13.5884 9.05319 13.5009 9.18423 13.4412 9.32844C13.3814 9.47266 13.3507 9.62723 13.3507 9.78333V12.1613C13.3507 12.4766 13.2254 12.7789 13.0025 13.0018C12.7796 13.2248 12.4773 13.35 12.162 13.35H10.9727V12.1613H12.162V9.18866C12.162 8.87352 12.2871 8.57128 12.5099 8.34838C12.7327 8.12548 13.0349 8.00017 13.35 7.99999C13.0347 7.99999 12.7324 7.87476 12.5095 7.65184C12.2866 7.42892 12.1613 7.12658 12.1613 6.81133V3.83933H10.972V2.64999H12.1613H12.162ZM8 9.78333C8.15772 9.78333 8.30897 9.84598 8.4205 9.9575C8.53202 10.069 8.59467 10.2203 8.59467 10.378C8.59467 10.5357 8.53202 10.687 8.4205 10.7985C8.30897 10.91 8.15772 10.9727 8 10.9727C7.8424 10.9725 7.69132 10.9098 7.57994 10.7983C7.46856 10.6867 7.406 10.5356 7.406 10.378C7.406 10.2204 7.46856 10.0692 7.57994 9.95774C7.69132 9.84623 7.8424 9.7835 8 9.78333ZM5.62267 9.78333C5.78027 9.7835 5.93135 9.84623 6.04273 9.95774C6.15411 10.0692 6.21667 10.2204 6.21667 10.378C6.21667 10.5356 6.15411 10.6867 6.04273 10.7983C5.93135 10.9098 5.78027 10.9725 5.62267 10.9727C5.54458 10.9727 5.46725 10.9573 5.3951 10.9274C5.32295 10.8975 5.2574 10.8537 5.20218 10.7985C5.14696 10.7433 5.10315 10.6777 5.07327 10.6056C5.04338 10.5334 5.028 10.4561 5.028 10.378C5.028 10.2999 5.04338 10.2226 5.07327 10.1504C5.10315 10.0783 5.14696 10.0127 5.20218 9.9575C5.2574 9.90228 5.32295 9.85848 5.3951 9.82859C5.46725 9.79871 5.54458 9.78333 5.62267 9.78333ZM10.378 9.78333C10.5356 9.7835 10.6867 9.84623 10.7981 9.95774C10.9094 10.0692 10.972 10.2204 10.972 10.378C10.972 10.5356 10.9094 10.6867 10.7981 10.7983C10.6867 10.9098 10.5356 10.9725 10.378 10.9727C10.2203 10.9727 10.069 10.91 9.95751 10.7985C9.84599 10.687 9.78334 10.5357 9.78334 10.378C9.78334 10.2203 9.84599 10.069 9.95751 9.9575C10.069 9.84598 10.2203 9.78333 10.378 9.78333Z" fill="#FBC02D"/>
</svg>
