<svg width="1600" height="161" viewBox="0 0 1600 161" fill="none" xmlns="http://www.w3.org/2000/svg">
<path d="M0 18.3333H53.3333C106.667 18.3333 213.333 18.3333 320 36.1111C426.667 53.8889 533.333 89.4444 640 77.5556C746.667 66.1111 853.333 6.11111 960 0.555551C1066.67 -5 1173.33 41.6667 1280 53.8889C1386.67 66.1111 1493.33 41.6667 1546.67 30.2222L1600 18.3333V160.556H1546.67C1493.33 160.556 1386.67 160.556 1280 160.556C1173.33 160.556 1066.67 160.556 960 160.556C853.333 160.556 746.667 160.556 640 160.556C533.333 160.556 426.667 160.556 320 160.556C213.333 160.556 106.667 160.556 53.3333 160.556H0V18.3333Z" fill="#E0E0E0" fill-opacity="0.8"/>
</svg>
